<?xml version="1.0" standalone="no"?>
<!DOCTYPE svg PUBLIC "-//W3C//DTD SVG 1.1//EN" "http://www.w3.org/Graphics/SVG/1.1/DTD/svg11.dtd" >
<svg xmlns="http://www.w3.org/2000/svg">
<metadata>
This is a custom SVG webfont generated by Font Squirrel.
</metadata>
<defs>
<font id="cosmUIMar15Regular" horiz-adv-x="1433" >
<font-face units-per-em="2048" ascent="1536" descent="-512" />
<missing-glyph horiz-adv-x="500" />
<glyph unicode="!" d="M10.5 129q-26.5 45 12.5 111l602 1048q39 66 92 66t90 -66l606 -1048q37 -66 10.5 -111t-102.5 -45h-1208q-76 0 -102.5 45zM596 270.5q0 -53.5 33 -87t86 -33.5h2q53 0 86 33.5t33 86.5q-2 53 -34 88t-85 35t-87 -34.5t-34 -88zM631 969l22 -494h125l25 494h-172z" />
<glyph unicode="&#x22;" d="M0 823q57 86 135 157t170 121t195.5 77.5t216 27.5t216 -27.5t196 -77.5t169 -121t136.5 -157l-103 -67q-98 150 -260 240.5t-354.5 90.5t-354 -91t-260.5 -240zM195 694q84 129 221 206t301 77t301 -77t223 -206l-102 -65q-68 102 -178.5 163.5t-243.5 61.5t-244 -61.5 t-180 -163.5zM397 559q53 78 136 125t183.5 47t184.5 -47t135 -125l-102 -67q-35 53 -92.5 85.5t-125 32.5t-124.5 -32.5t-92 -85.5zM594 346.5q0 18.5 6 35.5t14 32q18 25 45 40t58 15t57.5 -15.5t42.5 -39.5q10 -14 16.5 -31.5t6.5 -36t-6.5 -35t-16.5 -32.5 q-16 -23 -42.5 -37.5t-57.5 -14.5t-57.5 14.5t-45.5 37.5q-8 16 -14 32.5t-6 35z" />
<glyph unicode="#" d="M0 0l133 500l121 -121l262 260l123 -121l-262 -262l123 -123zM0 1434l500 -136l-121 -120l260 -260l-121 -121l-262 260l-123 -123zM793 514l122 123l263 -262l122 125l134 -500l-500 133l121 121zM797 915l260 263l-123 120l500 136l-134 -500l-122 121l-260 -262z" />
<glyph unicode="$" d="M0 547l887 887h547v-547l-887 -887zM1018 1136.5q0 -49.5 34.5 -84t84 -34.5t84.5 35q37 35 36.5 84t-36.5 84q-35 37 -84.5 36.5t-83.5 -36.5q-35 -35 -35 -84.5z" />
<glyph unicode="%" d="M0 668l135 137l324 -289q133 135 282 279q129 123 293 265t342 277l58 -57q-109 -125 -219.5 -257t-222 -276.5t-223.5 -305t-222 -345.5q-27 31 -68 77t-91 99.5t-104.5 109.5t-106.5 109.5t-98 99.5t-79 77z" />
<glyph unicode="&#x26;" d="M0 1075.5q0 98.5 24.5 188.5t71.5 170l78 -45q-41 -70 -63.5 -149t-22.5 -165t22.5 -165t63.5 -148l-78 -45q-47 80 -71.5 170t-24.5 188.5zM268 0l359 895h178l358 -895h-133l-313 272l-314 -272h-135zM268 1075.5q0 61.5 15.5 117.5t44.5 105l78 -43 q-47 -82 -47.5 -180t47.5 -180l-78 -43q-29 49 -44.5 105.5t-15.5 118zM418 131l231 201l-112 98zM571 518l146 -127l145 127l-117 287h-57zM590 1075q0 53 37 90t90 37t90 -37t37 -90t-37 -90t-90 -37t-90 37t-37 90zM784 332l232 -201l-119 299zM1028 895q47 82 47 180.5 t-47 179.5l78 43q57 -102 57 -223t-57 -223zM1260 762q41 70 62 148.5t21 164.5t-21.5 165t-61.5 149l77 45q47 -80 72 -170t25 -188.5t-25 -188.5t-72 -170z" />
<glyph unicode="(" d="M27 481q49 29 80.5 72t45 94t7.5 104.5t-33 102.5q-41 63 -100 98l139 246q49 -29 103.5 -36t104.5 6.5t94 46t73 81.5q35 61 34 138h283q0 -57 21.5 -107.5t58.5 -87.5t87 -58.5t105 -21.5q37 0 72 10.5t66 26.5l139 -244q-49 -29 -81 -71.5t-46 -94t-8 -104.5t35 -102 q18 -33 44.5 -57.5t55.5 -43.5l-141 -243q-49 29 -102.5 34.5t-104.5 -7.5t-94 -46t-72 -82q-18 -33 -26.5 -66.5t-8.5 -68.5h-283q0 55 -21.5 105.5t-58 87t-87 58t-105.5 21.5q-76 0 -137 -36zM428 716.5q0 -59.5 22.5 -112.5t61.5 -92t92 -61.5t112.5 -22.5t113 22.5 t92.5 61.5t61.5 92t22.5 112.5t-22.5 113t-61.5 92.5t-92.5 61.5t-113 22.5t-112.5 -22.5t-92 -61.5t-61.5 -92.5t-22.5 -113z" />
<glyph unicode="*" d="M180 88v1255q0 37 25.5 64t62.5 27h807q37 0 62.5 -27t25.5 -64v-1255q0 -35 -25.5 -61.5t-62.5 -26.5h-807q-37 0 -62.5 26.5t-25.5 61.5zM268 268h807v987h-807v-987zM602 135q0 -29 20.5 -50.5t49 -21.5t49 21.5t20.5 50.5t-20.5 48.5t-49 19.5t-49 -19.5t-20.5 -48.5 z" />
<glyph unicode="+" d="M0 496v442h496v496h442v-496h496v-442h-496v-496h-442v496h-496z" />
<glyph unicode="," d="M303 985v6v10v19q0 86 33 161.5t88 131t131 88.5t162 33t161.5 -33t131 -88.5t88 -131t32.5 -161.5v-19v-10v-6q0 -2 -1 -5t-1 -5q-6 -63 -27.5 -139t-52 -156t-66.5 -162t-73 -158q-86 -178 -192 -360q-106 182 -193 360q-37 76 -73.5 158t-66.5 162t-51.5 155.5 t-27.5 139.5q0 2 -1 5t-1 5zM539 1028q0 -74 52 -126t126 -52t126 52t52 126t-52 126t-126 52t-126 -52t-52 -126z" />
<glyph unicode="-" d="M274 332l222 385l221 385l223 -385l219 -385h-442h-443z" />
<glyph unicode="/" d="M274 1102h443h442l-219 -385l-223 -385l-221 385z" />
<glyph unicode="1" d="M80 324v671l573 -323v-672zM156 1110l565 324l565 -324l-565 -324zM797 0v672l555 323v-671z" />
<glyph unicode="3" d="M0 358q0 147 56.5 278.5t153.5 229t228 153.5t278.5 56t278.5 -56t228.5 -153.5t154 -228.5t56.5 -279h-271q0 96 -31.5 182.5t-87 155t-131 117.5t-165.5 70l45 -408q29 -18 46 -49t17 -68q0 -59 -40 -99t-99.5 -40t-99 40t-39.5 99q0 37 17 68t46 49l45 418 q-14 2 -29 2h-28q-113 0 -211.5 -42t-171 -114.5t-114.5 -171t-42 -209.5h-90z" />
<glyph unicode="4" d="M0 0v358h358v-358h-358zM0 539v356h358v-356h-358zM0 1075v359h358v-359h-358zM537 88v180h897v-180h-897zM537 627v178h897v-178h-897zM537 1163v180h897v-180h-897z" />
<glyph unicode="5" d="M20 498q0 88 25 129t61.5 50t80.5 -6.5t83 -38t64.5 -23.5t40 11.5t19.5 33t5 42.5v267q0 39 27 65.5t66 26.5h217q23 0 43 5t31.5 19.5t10.5 40t-23.5 64.5t-37 83t-6.5 80.5t49 61.5t129 25q90 0 131 -25t50.5 -61.5t-6 -80.5t-36.5 -83q-23 -39 -24.5 -64.5t9.5 -40 t32.5 -19.5t44.5 -5h215q39 0 65.5 -27t26.5 -65v-871q0 -39 -26.5 -65.5t-65.5 -26.5h-215q-23 0 -44.5 5t-32.5 19.5t-9 40t24 64.5q20 39 36 83t6.5 82t-50.5 62.5t-131 24.5q-88 0 -129 -24.5t-49 -62.5t6.5 -82t37 -83t23.5 -64.5t-10.5 -40t-33 -19.5t-43.5 -5h-215 q-39 0 -66 26.5t-27 65.5v207q0 23 -5 44.5t-19.5 32.5t-40 9t-64.5 -24.5t-83 -37t-80.5 -5t-61.5 49.5t-25 130z" />
<glyph unicode="6" d="M0 446v93h268l178 895l271 -988l180 539l178 -446l88 88h271v-88h-232l-160 -160l-51 125l-88 221l-194 -586l-78 285l-170 620l-119 -598h-342z" />
<glyph unicode="7" d="M0 268v717q0 37 26.5 63.5t61.5 26.5h358v88q0 39 28 65.5t63 26.5h360q35 0 61.5 -26.5t26.5 -65.5v-88h358q37 0 64 -26.5t27 -63.5v-717q0 -37 -27 -63.5t-64 -26.5h-1255q-35 0 -61.5 26.5t-26.5 63.5zM88 717h180v-135q0 -18 13.5 -30.5t31.5 -12.5h90q18 0 30.5 12 t12.5 31v135h539v-135q0 -18 13.5 -30.5t31.5 -12.5h90q18 0 30.5 12t12.5 31v135h180v88h-1255v-88zM537 1075h360v88h-360v-88z" />
<glyph unicode="9" d="M0 0v358h358v-358h-358zM0 539v356h358v-356h-358zM0 1075v359h358v-359h-358zM537 0v358h360v-358h-360zM537 539v356h360v-356h-360zM537 1075v359h360v-359h-360zM1075 0v358h359v-358h-359zM1075 539v356h359v-356h-359zM1075 1075v359h359v-359h-359z" />
<glyph unicode="&#x3c;" d="M0 0l180 446h88v271l-268 -90v90l268 88v180h-180l-88 178v180l135 -268h158q20 20 55 41l199 98q33 16 83 28.5t87 12.5t87 -12t83 -29l198 -98q37 -23 54 -41h159l136 268v-180l-91 -178h-180v-180l271 -88v-90l-271 90v-271h92l179 -446h-91l-143 358h-47 q-10 -27 -24.5 -50t-32.5 -38l-310 -247q-25 -23 -69 -23q-41 0 -70 23l-309 247q-18 14 -33.5 38t-25.5 50h-48l-143 -358h-88zM537 1260v83q0 37 26.5 64t63.5 27h178q39 0 65.5 -27t26.5 -64v-83q-39 16 -89 27t-91 11t-91 -11t-89 -27zM672 178h90v897h-90v-897z" />
<glyph unicode="=" d="M0 716.5q0 147.5 56.5 278.5t153.5 228.5t228 154t278.5 56.5t278.5 -56.5t228.5 -154t154 -228.5t56.5 -278.5t-56.5 -278.5t-154 -227t-228.5 -152.5t-278.5 -56.5t-278.5 56.5t-228 152.5t-153.5 227t-56.5 278.5zM477 786q10 0 23.5 -2t26 -6t22.5 -7t16 -7 q10 -4 16.5 -11.5t12.5 -15.5q12 -18 12 -41v-329q0 -29 -10 -39q-10 -16 -31 -23q-8 -2 -15 -4t-17.5 -2t-18.5 -1t-18 -3v-88h460v88q-10 2 -19 3t-17 5q-10 2 -17.5 4t-15.5 6q-20 6 -31 23q-12 14 -12 39v467l-367 -8v-48zM561 1094q0 -55 43 -95q41 -39 103 -38 q59 0 100 38.5t41 94t-41 94.5t-100 39q-61 0 -103 -39q-43 -41 -43 -94z" />
<glyph unicode="&#x3e;" d="M0 633v168q0 23 16.5 40t38.5 17h520v520q0 23 17.5 39.5t40.5 16.5h168q23 0 40 -16.5t17 -39.5v-520h520q23 0 39.5 -17.5t16.5 -39.5v-168q0 -23 -16.5 -40.5t-39.5 -17.5h-520v-520q0 -23 -17.5 -39t-39.5 -16h-168q-23 0 -40.5 16.5t-17.5 38.5v520h-520 q-23 0 -39 17.5t-16 40.5z" />
<glyph unicode="B" d="M264 981q0 53 36 92t89 43q-33 39 -33 88q0 56 41 96q37 39 90 40h3q51 0 90 -33q4 53 44 90t93 37t92 -37t43 -90q40 34 91 33h3q53 -1 90 -40q41 -41 41 -96q0 -49 -33 -88q53 -4 88 -43t35 -92t-34.5 -92t-88.5 -43q33 -39 33 -89q0 -57 -41 -95q-27 -29 -61 -37 q-15 -4 -31 -4l-39 6v-627l-188 188l-189 -188v627q-19 -6 -38 -6l-31 4q-35 8 -62 37q-41 39 -41 95q0 50 33 89q-53 4 -89 43t-36 92zM432 981q0 -59 22.5 -110.5t61.5 -89.5t90 -60.5t111 -22.5q57 0 109.5 22.5t91 60.5t61 89.5t22.5 110.5q0 57 -22.5 109.5t-61 90.5 t-91 60.5t-109.5 22.5q-59 0 -110.5 -22.5t-90.5 -60.5t-61.5 -90.5t-22.5 -109.5z" />
<glyph unicode="D" d="M0 59v445h209v-238h1018v238h207v-445h-1434zM403 924h211v450h207v-450h205l-311 -537z" />
<glyph unicode="E" d="M16 678q-15 18 -15 37t15 39q10 14 23 26l24 25q68 66 144 124t160 101q53 29 110.5 50.5t116.5 31.5q33 4 62.5 6t60.5 2t61.5 -2t61.5 -6q59 -10 116.5 -31.5t110.5 -50.5q84 -43 161 -101.5t142 -123.5q14 -12 25.5 -24.5t23.5 -26.5q14 -19 14.5 -38.5t-14.5 -37.5 q-35 -41 -74.5 -77t-80.5 -69q-90 -72 -191.5 -127t-214.5 -79q-66 -14 -141 -15q-72 0 -142 15q-113 25 -214 80t-191 126q-41 33 -80 69t-74 77zM442 716.5q0 -57.5 21.5 -107.5t58.5 -88t87 -59.5t107.5 -21.5t107.5 21.5t87 59.5t58.5 88t21.5 107.5t-21.5 107.5 t-58.5 87t-87 58.5t-107.5 21.5t-107.5 -21.5t-87 -58.5t-58.5 -87t-21.5 -107.5zM610 717q0 45 31 75.5t76 30.5t75.5 -30.5t30.5 -75.5t-30.5 -76t-75.5 -31t-76 31t-31 76z" />
<glyph unicode="G" d="M332 274v443v442l385 -221l385 -221l-385 -223z" />
<glyph unicode="I" d="M117 84v1266q0 35 25.5 59.5t60.5 24.5h688q29 0 62.5 -13.5t54.5 -34.5l260 -260q20 -23 34.5 -55.5t14.5 -60.5v-926q0 -35 -25.5 -59.5t-60.5 -24.5h-1028q-35 0 -60.5 24.5t-25.5 59.5zM174 84q0 -10 8 -19.5t21 -9.5h1028q12 0 20.5 9.5t8.5 19.5v926q0 6 -1.5 12 l-3.5 14h-335v336q-12 6 -29 6h-688q-12 0 -20.5 -9t-8.5 -19v-1266zM348 518v70h25q16 0 33 4q16 6 22 12q8 8 14 25q4 16 4 33v63q0 41 9 68q10 31 26 47q16 18 47 28.5t68 10.5h31v-68h-23q-18 0 -33 -6q-8 -2 -24 -14q-6 -4 -15 -25q-6 -16 -6 -39v-63q0 -14 -1 -25.5 t-3 -22.5q-4 -10 -7 -18t-7 -14q-12 -14 -25 -21q-18 -8 -34 -10q41 -4 59 -31q18 -29 18 -80v-94q0 -23 6 -41q4 -6 7.5 -12t7.5 -10q10 -10 24 -15q14 -6 33 -6h23v-67h-31q-76 0 -113 36q-37 35 -37 117v92q0 39 -18 58q-16 18 -55 18h-25zM805 197v67h24q16 0 33 6 q12 2 25 15q10 8 14 24q6 14 6 39v94q0 14 1 25.5t3 21.5q6 20 15 35q8 12 24 19q8 4 16.5 7t18.5 3q-39 6 -59 33q-18 25 -19 80v61q0 23 -6 39q-4 16 -14 25q-12 12 -25 14q-16 6 -33 6h-24v68h33q76 0 112 -37q39 -37 39 -117v-61q0 -37 17 -58q18 -18 55 -18h24v-70h-24 h-19l-14 -4q-12 -2 -22 -12q-6 -6 -15 -23q0 -6 -1 -14t-1 -19v-96q0 -41 -8 -67q-8 -25 -27 -47q-20 -20 -49 -29q-31 -10 -67 -10h-33zM977 1092h244l-244 245v-245z" />
<glyph unicode="T" d="M0 496q35 -33 94.5 -59.5t130.5 -33.5q14 -1 29 -1q58 0 122 20q79 25 152 96q-10 -1 -18 -1q-44 0 -68 26q-20 19 -20 38q0 12 8 23q8 12 20.5 21.5t26.5 17.5q-15 -3 -29 -2q-32 0 -61 12q-27 14 -49.5 30.5t-28.5 45.5q16 18 37 29.5t60 7.5q-37 12 -69 28.5t-56 39.5 q-23 25 -29 42t-10 33q23 8 43 12.5t43 0.5q-51 29 -76 62.5t-37 74.5q-8 18 -4 45q104 -39 182 -73t134.5 -64.5t95.5 -58t65 -54.5q12 33 32.5 81t48.5 99t62.5 96.5t75.5 69.5q4 -16 -10 -33q25 12 47.5 29.5t56.5 17.5q-10 -35 -51 -51q51 20 92 29q23 4 24 -8.5 t-11 -22.5q-27 -16 -51.5 -22t-53.5 -15q82 -4 146.5 -42t115.5 -121q35 -55 43 -113q41 -13 84 -13q26 0 52 5q10 2 18 3t18 5q-16 -18 -30.5 -33.5t-36.5 -23.5q-23 -6 -43.5 -12.5t-42.5 -6.5q37 -14 78 -17q18 -1 35 -2l47 3q-53 -49 -94 -58q-32 -7 -64 -6h-16 q-16 -72 -55.5 -144.5t-112.5 -137.5q-98 -88 -203 -131t-213 -54q-58 -6 -114 -5q-45 0 -89 3q-98 8 -209 60q-162 76 -264 213z" />
<glyph unicode="X" d="M0 420v594l420 420h594l420 -420v-594l-420 -420h-594zM299 461l160 -162l258 258l258 -258l160 162l-256 256l256 258l-160 162l-258 -258l-258 258l-160 -162l258 -258z" />
<glyph unicode="^" d="M0 717q0 29 19.5 47t46.5 18h114q29 0 47.5 -18.5t18.5 -46.5q0 -27 -18.5 -46.5t-47.5 -19.5h-114q-27 0 -46.5 19.5t-19.5 46.5zM190 257q0 28 19 46l82 82q20 18 47 18t47 -18q18 -20 18 -47t-18 -47l-82 -82q-18 -18 -47 -19q-27 0 -47 19q-19 20 -19 48zM190 1176.5 q0 27.5 19 48.5q20 18 48 18t46 -18l82 -82q18 -20 18 -47t-18 -47q-23 -18 -47 -19q-29 0 -47 19l-82 81q-19 19 -19 46.5zM313 717q0 82 32 155.5t87 129t128 87t157 31.5t157.5 -31.5t128 -87t86 -129t31.5 -155.5q0 -84 -31.5 -158t-86 -128t-128 -86t-157.5 -32 t-157 32t-128 86t-87 128t-32 158zM428 716.5q0 -59.5 22.5 -112.5t61.5 -92t92 -61.5t112.5 -22.5t113 22.5t92.5 61.5t61.5 92t22.5 112.5t-22.5 113t-61.5 92.5t-92.5 61.5t-113 22.5t-112.5 -22.5t-92 -61.5t-61.5 -92.5t-22.5 -113zM651 66v114q0 29 19.5 47.5 t46.5 18.5q29 0 47 -18.5t18 -47.5v-114q0 -27 -18.5 -46.5t-46.5 -19.5q-27 0 -46.5 19.5t-19.5 46.5zM651 1253v115q0 27 19.5 46.5t46.5 19.5q29 0 47 -19.5t18 -46.5v-115q0 -29 -18.5 -47t-46.5 -18q-27 0 -46.5 18t-19.5 47zM1030 338q0 27 19 47q20 18 46.5 18 t47.5 -18l82 -82q18 -18 18 -46t-18 -48q-23 -18 -47 -19q-29 0 -48 19l-81 82q-19 20 -19 47zM1030 1095.5q0 26.5 19 47.5l81 82q18 18 46 18t49 -18q18 -20 18 -48t-18 -47l-82 -81q-18 -18 -47 -19q-27 0 -47 19q-19 20 -19 46.5zM1188 717q0 29 18.5 47t46.5 18h115 q27 0 46.5 -18.5t19.5 -46.5q0 -27 -19.5 -46.5t-46.5 -19.5h-115q-29 0 -47 19.5t-18 46.5z" />
<glyph unicode="a" d="M0 305v952h1294v-202h140v-750q0 -53 -38 -90t-91 -37h-1176q-53 0 -91 37t-38 90zM86 305q0 -16 12.5 -29.5t30.5 -13.5h1038q16 0 28.5 13.5t12.5 29.5v866h-1122v-866zM209 414v426h393v-426h-393zM209 922v90h862v-90h-862zM690 414v88h289v-88h-289zM690 582v88h381 v-88h-381zM690 750v90h381v-90h-381z" />
<glyph unicode="b" d="M0 870q0 113 56.5 211.5t153.5 172t228 115.5t278.5 42t278.5 -42t228.5 -115.5t154 -172t56.5 -211t-56.5 -211t-154 -172t-228.5 -115.5t-278 -42h-12q-33 -49 -74 -97.5t-84 -90.5t-86 -73.5t-80 -45.5q47 59 72.5 125.5t25.5 138.5q0 16 -2 37.5t-6 37.5 q-102 29 -189 79.5t-149.5 116t-97.5 145t-35 167.5z" />
<glyph unicode="c" d="M0 716.5q0 147.5 56.5 278.5t153.5 228.5t228 154t278.5 56.5t278.5 -56.5t228.5 -154t154 -228.5t56.5 -278.5t-56.5 -278.5t-154 -228t-228.5 -153.5t-278.5 -56.5t-278.5 56.5t-228 153.5t-153.5 228t-56.5 278.5zM88 717h2q0 -129 49 -244t134 -199t199 -134t243 -50 v-2v2l2 -2q129 0 243.5 49t199.5 135t135.5 200t50.5 243v2q0 129 -49.5 243.5t-135.5 199.5t-200.5 134t-243.5 49t-244 -49t-200 -134t-134 -199.5t-49 -243.5h-2zM88 717h2l485 -70l-215 -287l287 215l68 -485l71 485l287 -217l-215 289l485 68l-485 71l217 287 l-289 -215l-69 485l-70 -485l-287 215l215 -287l-485 -69h-2z" />
<glyph unicode="d" d="M0 338l379 379l-379 379l338 338l379 -379l379 379l338 -338l-379 -379l379 -379l-338 -338l-379 379l-379 -379z" />
<glyph unicode="e" d="M0 0l86 356l934 936l272 -270l-936 -936zM248 322l76 -74l784 786l-74 74zM1075 1348l55 55q32 31 82 31q13 0 27 -2q68 -10 125 -68q55 -57 68 -124q3 -15 2 -29q0 -47 -31 -78l-57 -56z" />
<glyph unicode="f" d="M0 92q0 74 37 139.5t101.5 121t154.5 95t196 60.5q51 -37 107.5 -57.5t120 -20.5t120 20.5t107.5 57.5q106 -20 195.5 -60t155 -95.5t102.5 -121t37 -139.5h-1434zM422 938q0 84 22.5 157.5t62.5 129t94 87t115.5 31.5t115 -31.5t93.5 -87t63.5 -129t23.5 -157.5 t-23.5 -158.5t-63.5 -130t-93.5 -87.5t-115 -32t-115.5 32t-94 87.5t-62.5 130t-22.5 158.5z" />
<glyph unicode="g" d="M0 0v1434h88v-1346h1346v-88h-1434zM219 358.5q0 59.5 40 99.5t99 40q12 0 19 -2l151 303q-41 41 -41 96q0 59 41 99t99 40q59 0 100 -40t41 -99q0 -27 -14 -61l170 -172q27 14 61 14h12l164 385q-45 41 -45 102q0 59 40 100.5t99 41.5q57 0 97.5 -41t40.5 -101 q0 -57 -40 -97t-98 -40h-12l-166 -385q47 -41 47 -102q0 -59 -40 -99.5t-99 -40.5q-57 0 -98 40t-41 100q0 29 14 61l-170 172q-27 -14 -63 -14h-19l-151 -301q41 -41 41 -99q0 -59 -40 -99t-99.5 -40t-99.5 40t-40 99.5z" />
<glyph unicode="l" d="M88 178v1077q0 74 53.5 126.5t126.5 52.5h895v-1076h-850q-55 0 -94 -38.5t-39 -96.5q0 -55 39 -95t94 -40h942v1167h88v-1255h-1075q-74 0 -127 52t-53 126zM358 178v90h805v-90h-805z" />
<glyph unicode="m" d="M0 274l592 355l125 -113l125 113l592 -355h-1434zM0 332v827l522 -469zM43 1159h1348l-674 -502zM911 690l523 469v-827z" />
<glyph unicode="n" d="M0 279l600 602q-15 55 -15 111q0 52 13 105q27 110 111 193q61 61 139 92t158.5 31t159.5 -31.5t141 -93.5q63 -63 95 -142t32 -160t-30 -159.5t-91 -140.5q-86 -84 -195 -108q-50 -11 -100 -12l-117 16l-119 -123h-192v-146h-141v-145h-146v-148h-252q-27 2 -38 13.5 t-11 40.5zM1026 1123q0 -46 33 -81q35 -35 81 -34.5t81 32.5q33 35 32.5 81t-34.5 79q-35 35 -81 35t-79 -33t-33 -79z" />
<glyph unicode="p" d="M88 88v629q0 37 27.5 62.5t64.5 25.5h88v270q0 74 35 139.5t96.5 114.5t143.5 77t174 28t174 -28t142.5 -77t95 -114.5t34.5 -139.5v-270h92q35 0 61.5 -25.5t26.5 -62.5v-629q0 -35 -26.5 -61.5t-61.5 -26.5h-1075q-37 0 -64.5 26.5t-27.5 61.5zM446 805h539v270 q0 41 -22.5 70t-40.5 43q-39 33 -88 47q-53 20 -117 20t-117 -20q-49 -14 -88 -47q-18 -14 -42 -43t-24 -70v-270z" />
<glyph unicode="q" d="M0 600v234h270v206l365 -323l-365 -324v207h-270zM705 127v1180h729v-1180h-729zM762 1247v2l407 -84v-673l-389 -308h594v1063h-612z" />
<glyph unicode="r" d="M0 717q0 137 52 257t141.5 209t209 141t256.5 52q90 0 174.5 -23.5t158 -66.5t134 -103.5t103.5 -133.5l205 206v-542h-543l201 200q-29 61 -72 112.5t-99.5 88.5t-123 57.5t-138.5 20.5q-98 0 -185 -38t-151.5 -102.5t-101.5 -150.5t-37 -184.5t37 -185.5t101.5 -151.5 t151.5 -101t185 -36.5q74 0 141.5 21.5t125 59t101.5 91t71 118.5l170 -71q-37 -88 -98.5 -162t-141.5 -128t-173 -84t-196 -30q-137 0 -256.5 52.5t-209 141.5t-141.5 210t-52 256z" />
<glyph unicode="s" d="M176 894q-4 34 -4 67q0 58 13 114q22 88 76 164t138 127q84 49 178 61q34 4 67 5q58 0 114 -14q88 -22 164.5 -76t126.5 -138q47 -78 61 -163q7 -41 7 -81q0 -43 -8 -86q-15 -82 -59 -155.5t-112 -128.5l322 -471q4 -7 4 -15q0 -4 -1 -9q-3 -13 -14 -19l-121 -72 q-7 -5 -15 -5q-4 0 -8 1q-13 4 -18 16l-268 506q-80 -31 -163 -33h-12q-76 0 -148 24q-78 26 -144.5 77t-111.5 127q-52 84 -64 177zM326 916q8 -62 42.5 -119.5t86 -95t111.5 -52.5q38 -9 78 -9q22 0 45 3q62 8 120 43q57 33 94 85t52 112q10 39 10 79q0 22 -2 44 q-8 63 -43 120.5t-86.5 94t-111.5 51.5q-38 9 -78 9q-22 0 -45 -3q-62 -8 -119.5 -43t-94.5 -86t-52 -111q-10 -39 -10 -78q0 -22 3 -44z" />
<glyph unicode="t" d="M4 206q8 60 55 130v2l437 659v301h-39q-25 0 -42.5 16.5t-17.5 41.5v20q0 23 17.5 40.5t42.5 17.5h520q27 0 43 -17.5t16 -40.5v-20q0 -25 -16 -41.5t-43 -16.5h-37v-301l434 -659v-2q45 -70 54 -130q3 -16 3 -32q0 -41 -18 -75q-25 -46 -81 -72.5t-140 -26.5h-72h-807 h-71q-84 0 -140.5 26.5t-81.5 72.5q-18 35 -18 78q0 14 2 29zM336 547h762l-254 387l-19 29v34v301v21h-217v-21v-301v-34l-18 -29z" />
<glyph unicode="&#xaa;" d="M0 305v952h1294v-202h140v-750q0 -53 -38 -90t-91 -37h-1176q-53 0 -91 37t-38 90zM86 305q0 -16 12.5 -29.5t30.5 -13.5h1038q16 0 28.5 13.5t12.5 29.5v866h-1122v-866zM209 414v426h393v-426h-393zM209 922v90h862v-90h-862zM690 414v88h289v-88h-289zM690 582v88h381 v-88h-381zM690 750v90h381v-90h-381z" />
<glyph unicode="&#xad;" d="M274 332l222 385l221 385l223 -385l219 -385h-442h-443z" />
<glyph unicode="&#xb3;" d="M0 358q0 147 56.5 278.5t153.5 229t228 153.5t278.5 56t278.5 -56t228.5 -153.5t154 -228.5t56.5 -279h-271q0 96 -31.5 182.5t-87 155t-131 117.5t-165.5 70l45 -408q29 -18 46 -49t17 -68q0 -59 -40 -99t-99.5 -40t-99 40t-39.5 99q0 37 17 68t46 49l45 418 q-14 2 -29 2h-28q-113 0 -211.5 -42t-171 -114.5t-114.5 -171t-42 -209.5h-90z" />
<glyph unicode="&#xb9;" d="M80 324v671l573 -323v-672zM156 1110l565 324l565 -324l-565 -324zM797 0v672l555 323v-671z" />
<glyph unicode="&#xca;" d="M0 1960q0 29 19.5 47t46.5 18h114q29 0 47.5 -18.5t18.5 -46.5q0 -27 -18.5 -46.5t-47.5 -19.5h-114q-27 0 -46.5 19.5t-19.5 46.5zM190 1500q0 28 19 46l82 82q20 18 47 18t47 -18q18 -20 18 -47t-18 -47l-82 -82q-18 -18 -47 -19q-27 0 -47 19q-19 20 -19 48z M190 2419.5q0 27.5 19 48.5q20 18 48 18t46 -18l82 -82q18 -20 18 -47t-18 -47q-23 -18 -47 -19q-29 0 -47 19l-82 81q-19 19 -19 46.5zM313 1960q0 82 32 155.5t87 129t128 87t157 31.5t157.5 -31.5t128 -87t86 -129t31.5 -155.5q0 -84 -31.5 -158t-86 -128t-128 -86 t-157.5 -32t-157 32t-128 86t-87 128t-32 158zM428 1959.5q0 -59.5 22.5 -112.5t61.5 -92t92 -61.5t112.5 -22.5t113 22.5t92.5 61.5t61.5 92t22.5 112.5t-22.5 113t-61.5 92.5t-92.5 61.5t-113 22.5t-112.5 -22.5t-92 -61.5t-61.5 -92.5t-22.5 -113zM651 1309v114 q0 29 19.5 47.5t46.5 18.5q29 0 47 -18.5t18 -47.5v-114q0 -27 -18.5 -46.5t-46.5 -19.5q-27 0 -46.5 19.5t-19.5 46.5zM651 2496v115q0 27 19.5 46.5t46.5 19.5q29 0 47 -19.5t18 -46.5v-115q0 -29 -18.5 -47t-46.5 -18q-27 0 -46.5 18t-19.5 47zM1030 1581q0 27 19 47 q20 18 46.5 18t47.5 -18l82 -82q18 -18 18 -46t-18 -48q-23 -18 -47 -19q-29 0 -48 19l-81 82q-19 20 -19 47zM1030 2338.5q0 26.5 19 47.5l81 82q18 18 46 18t49 -18q18 -20 18 -48t-18 -47l-82 -81q-18 -18 -47 -19q-27 0 -47 19q-19 20 -19 46.5zM1188 1960q0 29 18.5 47 t46.5 18h115q27 0 46.5 -18.5t19.5 -46.5q0 -27 -19.5 -46.5t-46.5 -19.5h-115q-29 0 -47 19.5t-18 46.5zM16 678q-15 18 -15 37t15 39q10 14 23 26l24 25q68 66 144 124t160 101q53 29 110.5 50.5t116.5 31.5q33 4 62.5 6t60.5 2t61.5 -2t61.5 -6q59 -10 116.5 -31.5 t110.5 -50.5q84 -43 161 -101.5t142 -123.5q14 -12 25.5 -24.5t23.5 -26.5q14 -19 14.5 -38.5t-14.5 -37.5q-35 -41 -74.5 -77t-80.5 -69q-90 -72 -191.5 -127t-214.5 -79q-66 -14 -141 -15q-72 0 -142 15q-113 25 -214 80t-191 126q-41 33 -80 69t-74 77zM442 716.5 q0 -57.5 21.5 -107.5t58.5 -88t87 -59.5t107.5 -21.5t107.5 21.5t87 59.5t58.5 88t21.5 107.5t-21.5 107.5t-58.5 87t-87 58.5t-107.5 21.5t-107.5 -21.5t-87 -58.5t-58.5 -87t-21.5 -107.5zM610 717q0 45 31 75.5t76 30.5t75.5 -30.5t30.5 -75.5t-30.5 -76t-75.5 -31 t-76 31t-31 76z" />
<glyph unicode="&#xce;" d="M-170 2273q0 29 19.5 47t46.5 18h114q29 0 47.5 -18.5t18.5 -46.5q0 -27 -18.5 -46.5t-47.5 -19.5h-114q-27 0 -46.5 19.5t-19.5 46.5zM20 1813q0 28 19 46l82 82q20 18 47 18t47 -18q18 -20 18 -47t-18 -47l-82 -82q-18 -18 -47 -19q-27 0 -47 19q-19 20 -19 48z M20 2732.5q0 27.5 19 48.5q20 18 48 18t46 -18l82 -82q18 -20 18 -47t-18 -47q-23 -18 -47 -19q-29 0 -47 19l-82 81q-19 19 -19 46.5zM143 2273q0 82 32 155.5t87 129t128 87t157 31.5t157.5 -31.5t128 -87t86 -129t31.5 -155.5q0 -84 -31.5 -158t-86 -128t-128 -86 t-157.5 -32t-157 32t-128 86t-87 128t-32 158zM258 2272.5q0 -59.5 22.5 -112.5t61.5 -92t92 -61.5t112.5 -22.5t113 22.5t92.5 61.5t61.5 92t22.5 112.5t-22.5 113t-61.5 92.5t-92.5 61.5t-113 22.5t-112.5 -22.5t-92 -61.5t-61.5 -92.5t-22.5 -113zM481 1622v114 q0 29 19.5 47.5t46.5 18.5q29 0 47 -18.5t18 -47.5v-114q0 -27 -18.5 -46.5t-46.5 -19.5q-27 0 -46.5 19.5t-19.5 46.5zM481 2809v115q0 27 19.5 46.5t46.5 19.5q29 0 47 -19.5t18 -46.5v-115q0 -29 -18.5 -47t-46.5 -18q-27 0 -46.5 18t-19.5 47zM860 1894q0 27 19 47 q20 18 46.5 18t47.5 -18l82 -82q18 -18 18 -46t-18 -48q-23 -18 -47 -19q-29 0 -48 19l-81 82q-19 20 -19 47zM860 2651.5q0 26.5 19 47.5l81 82q18 18 46 18t49 -18q18 -20 18 -48t-18 -47l-82 -81q-18 -18 -47 -19q-27 0 -47 19q-19 20 -19 46.5zM1018 2273q0 29 18.5 47 t46.5 18h115q27 0 46.5 -18.5t19.5 -46.5q0 -27 -19.5 -46.5t-46.5 -19.5h-115q-29 0 -47 19.5t-18 46.5zM117 84v1266q0 35 25.5 59.5t60.5 24.5h688q29 0 62.5 -13.5t54.5 -34.5l260 -260q20 -23 34.5 -55.5t14.5 -60.5v-926q0 -35 -25.5 -59.5t-60.5 -24.5h-1028 q-35 0 -60.5 24.5t-25.5 59.5zM174 84q0 -10 8 -19.5t21 -9.5h1028q12 0 20.5 9.5t8.5 19.5v926q0 6 -1.5 12l-3.5 14h-335v336q-12 6 -29 6h-688q-12 0 -20.5 -9t-8.5 -19v-1266zM348 518v70h25q16 0 33 4q16 6 22 12q8 8 14 25q4 16 4 33v63q0 41 9 68q10 31 26 47 q16 18 47 28.5t68 10.5h31v-68h-23q-18 0 -33 -6q-8 -2 -24 -14q-6 -4 -15 -25q-6 -16 -6 -39v-63q0 -14 -1 -25.5t-3 -22.5q-4 -10 -7 -18t-7 -14q-12 -14 -25 -21q-18 -8 -34 -10q41 -4 59 -31q18 -29 18 -80v-94q0 -23 6 -41q4 -6 7.5 -12t7.5 -10q10 -10 24 -15 q14 -6 33 -6h23v-67h-31q-76 0 -113 36q-37 35 -37 117v92q0 39 -18 58q-16 18 -55 18h-25zM805 197v67h24q16 0 33 6q12 2 25 15q10 8 14 24q6 14 6 39v94q0 14 1 25.5t3 21.5q6 20 15 35q8 12 24 19q8 4 16.5 7t18.5 3q-39 6 -59 33q-18 25 -19 80v61q0 23 -6 39 q-4 16 -14 25q-12 12 -25 14q-16 6 -33 6h-24v68h33q76 0 112 -37q39 -37 39 -117v-61q0 -37 17 -58q18 -18 55 -18h24v-70h-24h-19l-14 -4q-12 -2 -22 -12q-6 -6 -15 -23q0 -6 -1 -14t-1 -19v-96q0 -41 -8 -67q-8 -25 -27 -47q-20 -20 -49 -29q-31 -10 -67 -10h-33z M977 1092h244l-244 245v-245z" />
<glyph unicode="&#xe2;" d="M-70 2097q0 29 19.5 47t46.5 18h114q29 0 47.5 -18.5t18.5 -46.5q0 -27 -18.5 -46.5t-47.5 -19.5h-114q-27 0 -46.5 19.5t-19.5 46.5zM120 1637q0 28 19 46l82 82q20 18 47 18t47 -18q18 -20 18 -47t-18 -47l-82 -82q-18 -18 -47 -19q-27 0 -47 19q-19 20 -19 48z M120 2556.5q0 27.5 19 48.5q20 18 48 18t46 -18l82 -82q18 -20 18 -47t-18 -47q-23 -18 -47 -19q-29 0 -47 19l-82 81q-19 19 -19 46.5zM243 2097q0 82 32 155.5t87 129t128 87t157 31.5t157.5 -31.5t128 -87t86 -129t31.5 -155.5q0 -84 -31.5 -158t-86 -128t-128 -86 t-157.5 -32t-157 32t-128 86t-87 128t-32 158zM358 2096.5q0 -59.5 22.5 -112.5t61.5 -92t92 -61.5t112.5 -22.5t113 22.5t92.5 61.5t61.5 92t22.5 112.5t-22.5 113t-61.5 92.5t-92.5 61.5t-113 22.5t-112.5 -22.5t-92 -61.5t-61.5 -92.5t-22.5 -113zM581 1446v114 q0 29 19.5 47.5t46.5 18.5q29 0 47 -18.5t18 -47.5v-114q0 -27 -18.5 -46.5t-46.5 -19.5q-27 0 -46.5 19.5t-19.5 46.5zM581 2633v115q0 27 19.5 46.5t46.5 19.5q29 0 47 -19.5t18 -46.5v-115q0 -29 -18.5 -47t-46.5 -18q-27 0 -46.5 18t-19.5 47zM960 1718q0 27 19 47 q20 18 46.5 18t47.5 -18l82 -82q18 -18 18 -46t-18 -48q-23 -18 -47 -19q-29 0 -48 19l-81 82q-19 20 -19 47zM960 2475.5q0 26.5 19 47.5l81 82q18 18 46 18t49 -18q18 -20 18 -48t-18 -47l-82 -81q-18 -18 -47 -19q-27 0 -47 19q-19 20 -19 46.5zM1118 2097q0 29 18.5 47 t46.5 18h115q27 0 46.5 -18.5t19.5 -46.5q0 -27 -19.5 -46.5t-46.5 -19.5h-115q-29 0 -47 19.5t-18 46.5zM0 305v952h1294v-202h140v-750q0 -53 -38 -90t-91 -37h-1176q-53 0 -91 37t-38 90zM86 305q0 -16 12.5 -29.5t30.5 -13.5h1038q16 0 28.5 13.5t12.5 29.5v866h-1122 v-866zM209 414v426h393v-426h-393zM209 922v90h862v-90h-862zM690 414v88h289v-88h-289zM690 582v88h381v-88h-381zM690 750v90h381v-90h-381z" />
<glyph unicode="&#xea;" d="M496 2273q0 29 19.5 47t46.5 18h114q29 0 47.5 -18.5t18.5 -46.5q0 -27 -18.5 -46.5t-47.5 -19.5h-114q-27 0 -46.5 19.5t-19.5 46.5zM686 1813q0 28 19 46l82 82q20 18 47 18t47 -18q18 -20 18 -47t-18 -47l-82 -82q-18 -18 -47 -19q-27 0 -47 19q-19 20 -19 48z M686 2732.5q0 27.5 19 48.5q20 18 48 18t46 -18l82 -82q18 -20 18 -47t-18 -47q-23 -18 -47 -19q-29 0 -47 19l-82 81q-19 19 -19 46.5zM809 2273q0 82 32 155.5t87 129t128 87t157 31.5t157.5 -31.5t128 -87t86 -129t31.5 -155.5q0 -84 -31.5 -158t-86 -128t-128 -86 t-157.5 -32t-157 32t-128 86t-87 128t-32 158zM924 2272.5q0 -59.5 22.5 -112.5t61.5 -92t92 -61.5t112.5 -22.5t113 22.5t92.5 61.5t61.5 92t22.5 112.5t-22.5 113t-61.5 92.5t-92.5 61.5t-113 22.5t-112.5 -22.5t-92 -61.5t-61.5 -92.5t-22.5 -113zM1147 1622v114 q0 29 19.5 47.5t46.5 18.5q29 0 47 -18.5t18 -47.5v-114q0 -27 -18.5 -46.5t-46.5 -19.5q-27 0 -46.5 19.5t-19.5 46.5zM1147 2809v115q0 27 19.5 46.5t46.5 19.5q29 0 47 -19.5t18 -46.5v-115q0 -29 -18.5 -47t-46.5 -18q-27 0 -46.5 18t-19.5 47zM1526 1894q0 27 19 47 q20 18 46.5 18t47.5 -18l82 -82q18 -18 18 -46t-18 -48q-23 -18 -47 -19q-29 0 -48 19l-81 82q-19 20 -19 47zM1526 2651.5q0 26.5 19 47.5l81 82q18 18 46 18t49 -18q18 -20 18 -48t-18 -47l-82 -81q-18 -18 -47 -19q-27 0 -47 19q-19 20 -19 46.5zM1684 2273q0 29 18.5 47 t46.5 18h115q27 0 46.5 -18.5t19.5 -46.5q0 -27 -19.5 -46.5t-46.5 -19.5h-115q-29 0 -47 19.5t-18 46.5zM0 0l86 356l934 936l272 -270l-936 -936zM248 322l76 -74l784 786l-74 74zM1075 1348l55 55q32 31 82 31q13 0 27 -2q68 -10 125 -68q55 -57 68 -124q3 -15 2 -29 q0 -47 -31 -78l-57 -56z" />
<glyph unicode="&#x2c6;" d="M0 717q0 29 19.5 47t46.5 18h114q29 0 47.5 -18.5t18.5 -46.5q0 -27 -18.5 -46.5t-47.5 -19.5h-114q-27 0 -46.5 19.5t-19.5 46.5zM190 257q0 28 19 46l82 82q20 18 47 18t47 -18q18 -20 18 -47t-18 -47l-82 -82q-18 -18 -47 -19q-27 0 -47 19q-19 20 -19 48zM190 1176.5 q0 27.5 19 48.5q20 18 48 18t46 -18l82 -82q18 -20 18 -47t-18 -47q-23 -18 -47 -19q-29 0 -47 19l-82 81q-19 19 -19 46.5zM313 717q0 82 32 155.5t87 129t128 87t157 31.5t157.5 -31.5t128 -87t86 -129t31.5 -155.5q0 -84 -31.5 -158t-86 -128t-128 -86t-157.5 -32 t-157 32t-128 86t-87 128t-32 158zM428 716.5q0 -59.5 22.5 -112.5t61.5 -92t92 -61.5t112.5 -22.5t113 22.5t92.5 61.5t61.5 92t22.5 112.5t-22.5 113t-61.5 92.5t-92.5 61.5t-113 22.5t-112.5 -22.5t-92 -61.5t-61.5 -92.5t-22.5 -113zM651 66v114q0 29 19.5 47.5 t46.5 18.5q29 0 47 -18.5t18 -47.5v-114q0 -27 -18.5 -46.5t-46.5 -19.5q-27 0 -46.5 19.5t-19.5 46.5zM651 1253v115q0 27 19.5 46.5t46.5 19.5q29 0 47 -19.5t18 -46.5v-115q0 -29 -18.5 -47t-46.5 -18q-27 0 -46.5 18t-19.5 47zM1030 338q0 27 19 47q20 18 46.5 18 t47.5 -18l82 -82q18 -18 18 -46t-18 -48q-23 -18 -47 -19q-29 0 -48 19l-81 82q-19 20 -19 47zM1030 1095.5q0 26.5 19 47.5l81 82q18 18 46 18t49 -18q18 -20 18 -48t-18 -47l-82 -81q-18 -18 -47 -19q-27 0 -47 19q-19 20 -19 46.5zM1188 717q0 29 18.5 47t46.5 18h115 q27 0 46.5 -18.5t19.5 -46.5q0 -27 -19.5 -46.5t-46.5 -19.5h-115q-29 0 -47 19.5t-18 46.5z" />
<glyph unicode="&#x2000;" horiz-adv-x="1495" />
<glyph unicode="&#x2001;" horiz-adv-x="2990" />
<glyph unicode="&#x2002;" horiz-adv-x="1495" />
<glyph unicode="&#x2003;" horiz-adv-x="2990" />
<glyph unicode="&#x2004;" horiz-adv-x="995" />
<glyph unicode="&#x2005;" horiz-adv-x="747" />
<glyph unicode="&#x2006;" horiz-adv-x="497" />
<glyph unicode="&#x2007;" horiz-adv-x="497" />
<glyph unicode="&#x2008;" horiz-adv-x="372" />
<glyph unicode="&#x2009;" horiz-adv-x="598" />
<glyph unicode="&#x200a;" horiz-adv-x="165" />
<glyph unicode="&#x2010;" d="M274 332l222 385l221 385l223 -385l219 -385h-442h-443z" />
<glyph unicode="&#x2011;" d="M274 332l222 385l221 385l223 -385l219 -385h-442h-443z" />
<glyph unicode="&#x2012;" d="M274 332l222 385l221 385l223 -385l219 -385h-442h-443z" />
<glyph unicode="&#x2013;" horiz-adv-x="1024" d="M274 332v770h476v-770h-476z" />
<glyph unicode="&#x2014;" horiz-adv-x="2048" d="M274 332v770h1500v-770h-1500z" />
<glyph unicode="&#x201c;" d="M0 823q57 86 135 157t170 121t195.5 77.5t216 27.5t216 -27.5t196 -77.5t169 -121t136.5 -157l-103 -67q-98 150 -260 240.5t-354.5 90.5t-354 -91t-260.5 -240zM195 694q84 129 221 206t301 77t301 -77t223 -206l-102 -65q-68 102 -178.5 163.5t-243.5 61.5t-244 -61.5 t-180 -163.5zM397 559q53 78 136 125t183.5 47t184.5 -47t135 -125l-102 -67q-35 53 -92.5 85.5t-125 32.5t-124.5 -32.5t-92 -85.5zM594 346.5q0 18.5 6 35.5t14 32q18 25 45 40t58 15t57.5 -15.5t42.5 -39.5q10 -14 16.5 -31.5t6.5 -36t-6.5 -35t-16.5 -32.5 q-16 -23 -42.5 -37.5t-57.5 -14.5t-57.5 14.5t-45.5 37.5q-8 16 -14 32.5t-6 35z" />
<glyph unicode="&#x201d;" d="M0 823q57 86 135 157t170 121t195.5 77.5t216 27.5t216 -27.5t196 -77.5t169 -121t136.5 -157l-103 -67q-98 150 -260 240.5t-354.5 90.5t-354 -91t-260.5 -240zM195 694q84 129 221 206t301 77t301 -77t223 -206l-102 -65q-68 102 -178.5 163.5t-243.5 61.5t-244 -61.5 t-180 -163.5zM397 559q53 78 136 125t183.5 47t184.5 -47t135 -125l-102 -67q-35 53 -92.5 85.5t-125 32.5t-124.5 -32.5t-92 -85.5zM594 346.5q0 18.5 6 35.5t14 32q18 25 45 40t58 15t57.5 -15.5t42.5 -39.5q10 -14 16.5 -31.5t6.5 -36t-6.5 -35t-16.5 -32.5 q-16 -23 -42.5 -37.5t-57.5 -14.5t-57.5 14.5t-45.5 37.5q-8 16 -14 32.5t-6 35z" />
<glyph unicode="&#x202f;" horiz-adv-x="598" />
<glyph unicode="&#x2039;" d="M0 0l180 446h88v271l-268 -90v90l268 88v180h-180l-88 178v180l135 -268h158q20 20 55 41l199 98q33 16 83 28.5t87 12.5t87 -12t83 -29l198 -98q37 -23 54 -41h159l136 268v-180l-91 -178h-180v-180l271 -88v-90l-271 90v-271h92l179 -446h-91l-143 358h-47 q-10 -27 -24.5 -50t-32.5 -38l-310 -247q-25 -23 -69 -23q-41 0 -70 23l-309 247q-18 14 -33.5 38t-25.5 50h-48l-143 -358h-88zM537 1260v83q0 37 26.5 64t63.5 27h178q39 0 65.5 -27t26.5 -64v-83q-39 16 -89 27t-91 11t-91 -11t-89 -27zM672 178h90v897h-90v-897z" />
<glyph unicode="&#x203a;" d="M0 633v168q0 23 16.5 40t38.5 17h520v520q0 23 17.5 39.5t40.5 16.5h168q23 0 40 -16.5t17 -39.5v-520h520q23 0 39.5 -17.5t16.5 -39.5v-168q0 -23 -16.5 -40.5t-39.5 -17.5h-520v-520q0 -23 -17.5 -39t-39.5 -16h-168q-23 0 -40.5 16.5t-17.5 38.5v520h-520 q-23 0 -39 17.5t-16 40.5z" />
<glyph unicode="&#x205f;" horiz-adv-x="747" />
<glyph unicode="&#xe000;" horiz-adv-x="500" d="M0 0v0v0v0v0z" />
<glyph unicode="&#xfb02;" horiz-adv-x="2867" d="M1522 178v1077q0 74 53.5 126.5t126.5 52.5h895v-1076h-850q-55 0 -94 -38.5t-39 -96.5q0 -55 39 -95t94 -40h942v1167h88v-1255h-1075q-74 0 -127 52t-53 126zM1792 178v90h805v-90h-805zM0 92q0 74 37 139.5t101.5 121t154.5 95t196 60.5q51 -37 107.5 -57.5t120 -20.5 t120 20.5t107.5 57.5q106 -20 195.5 -60t155 -95.5t102.5 -121t37 -139.5h-1434zM422 938q0 84 22.5 157.5t62.5 129t94 87t115.5 31.5t115 -31.5t93.5 -87t63.5 -129t23.5 -157.5t-23.5 -158.5t-63.5 -130t-93.5 -87.5t-115 -32t-115.5 32t-94 87.5t-62.5 130t-22.5 158.5z " />
<glyph unicode="&#xfb04;" horiz-adv-x="4300" d="M2955 178v1077q0 74 53.5 126.5t126.5 52.5h895v-1076h-850q-55 0 -94 -38.5t-39 -96.5q0 -55 39 -95t94 -40h942v1167h88v-1255h-1075q-74 0 -127 52t-53 126zM3225 178v90h805v-90h-805zM1434 92q0 74 37 139.5t101.5 121t154.5 95t196 60.5q51 -37 107.5 -57.5 t120 -20.5t120 20.5t107.5 57.5q106 -20 195.5 -60t155 -95.5t102.5 -121t37 -139.5h-1434zM1856 938q0 84 22.5 157.5t62.5 129t94 87t115.5 31.5t115 -31.5t93.5 -87t63.5 -129t23.5 -157.5t-23.5 -158.5t-63.5 -130t-93.5 -87.5t-115 -32t-115.5 32t-94 87.5t-62.5 130 t-22.5 158.5zM0 92q0 74 37 139.5t101.5 121t154.5 95t196 60.5q51 -37 107.5 -57.5t120 -20.5t120 20.5t107.5 57.5q106 -20 195.5 -60t155 -95.5t102.5 -121t37 -139.5h-1434zM422 938q0 84 22.5 157.5t62.5 129t94 87t115.5 31.5t115 -31.5t93.5 -87t63.5 -129 t23.5 -157.5t-23.5 -158.5t-63.5 -130t-93.5 -87.5t-115 -32t-115.5 32t-94 87.5t-62.5 130t-22.5 158.5z" />
</font>
</defs>
</svg>
